<svg width="8" height="15" viewBox="0 0 8 15" fill="none" xmlns="http://www.w3.org/2000/svg">
<path d="M7.6064 6.07909L7.36504 8.16955C7.35502 8.26493 7.31032 8.35332 7.23943 8.41792C7.16854 8.48253 7.0764 8.51885 6.98049 8.52H4.79868L4.78777 14.7177C4.78851 14.7912 4.76031 14.862 4.70927 14.9148C4.65824 14.9676 4.58847 14.9982 4.51504 15H2.30458C2.26783 15 2.23145 14.9926 2.19763 14.9782C2.16381 14.9639 2.13325 14.9428 2.10777 14.9163C2.0823 14.8898 2.06245 14.8584 2.0494 14.8241C2.03635 14.7897 2.03039 14.7531 2.03186 14.7164V8.52H0.395493C0.344098 8.51947 0.293311 8.50881 0.246033 8.48865C0.198755 8.46849 0.155911 8.43921 0.119949 8.40249C0.0839869 8.36576 0.0556105 8.32232 0.03644 8.27463C0.0172695 8.22694 0.00768037 8.17594 0.00822041 8.12455L3.84034e-05 6.03409C-0.000682892 5.98252 0.00876276 5.9313 0.0278356 5.88338C0.0469084 5.83546 0.0752349 5.79176 0.111197 5.75478C0.14716 5.71781 0.190054 5.68828 0.237431 5.66788C0.284807 5.64748 0.335736 5.63662 0.387311 5.63591H2.03186V3.61773C2.03186 1.275 3.42277 0 5.46277 0H7.13458C7.18628 0.000533449 7.23735 0.0112666 7.28489 0.0315836C7.33242 0.0519007 7.37547 0.0814019 7.41158 0.118395C7.44769 0.155389 7.47614 0.199147 7.49529 0.247159C7.51445 0.295171 7.52394 0.346493 7.52322 0.398182V2.15727C7.52394 2.20896 7.51445 2.26028 7.49529 2.3083C7.47614 2.35631 7.44769 2.40007 7.41158 2.43706C7.37547 2.47405 7.33242 2.50355 7.28489 2.52387C7.23735 2.54419 7.18628 2.55492 7.13458 2.55545H6.10913C5.00049 2.55545 4.78504 3.10091 4.78504 3.88909V5.63591H7.22186C7.27728 5.6366 7.33192 5.64902 7.38219 5.67234C7.43247 5.69566 7.47724 5.72936 7.51356 5.77122C7.54989 5.81308 7.57694 5.86216 7.59294 5.91522C7.60894 5.96828 7.61353 6.02413 7.6064 6.07909Z" fill="#090F1D"/>
</svg>
