<svg width="15" height="15" viewBox="0 0 15 15" fill="none" xmlns="http://www.w3.org/2000/svg">
<path d="M4.09091 2.04545C4.09091 2.45001 3.97095 2.84547 3.74619 3.18185C3.52143 3.51822 3.20198 3.78039 2.82822 3.93521C2.45446 4.09002 2.04319 4.13053 1.64641 4.05161C1.24963 3.97268 0.885163 3.77787 0.599101 3.49181C0.313039 3.20575 0.118228 2.84128 0.0393038 2.4445C-0.0396205 2.04772 0.000886072 1.63645 0.155702 1.26269C0.310517 0.888935 0.572689 0.569478 0.909062 0.344721C1.24544 0.119964 1.6409 0 2.04546 0C2.58794 0 3.10821 0.215503 3.49181 0.5991C3.87541 0.982697 4.09091 1.50297 4.09091 2.04545ZM3.62727 5.45455V14.4914C3.62763 14.558 3.61481 14.6241 3.58955 14.6858C3.56429 14.7475 3.52708 14.8036 3.48006 14.8509C3.43305 14.8981 3.37716 14.9356 3.3156 14.9612C3.25404 14.9868 3.18803 15 3.12136 15H0.965455C0.898789 15.0002 0.832745 14.9872 0.771118 14.9618C0.709492 14.9363 0.653499 14.899 0.606358 14.8518C0.559218 14.8047 0.521859 14.7487 0.49643 14.6871C0.471001 14.6254 0.458003 14.5594 0.458183 14.4927V5.45455C0.458183 5.32001 0.511628 5.19098 0.60676 5.09585C0.701892 5.00072 0.830918 4.94727 0.965455 4.94727H3.12136C3.25567 4.94763 3.38434 5.00124 3.47918 5.09633C3.57402 5.19142 3.62727 5.32024 3.62727 5.45455ZM14.8964 10.1591V14.5336C14.8965 14.5949 14.8846 14.6557 14.8612 14.7123C14.8379 14.769 14.8035 14.8205 14.7602 14.8638C14.7168 14.9071 14.6653 14.9415 14.6087 14.9649C14.552 14.9882 14.4913 15.0002 14.43 15H12.1118C12.0505 15.0002 11.9898 14.9882 11.9331 14.9649C11.8765 14.9415 11.825 14.9071 11.7816 14.8638C11.7383 14.8205 11.704 14.769 11.6806 14.7123C11.6572 14.6557 11.6453 14.5949 11.6455 14.5336V10.2941C11.6455 9.66136 11.8309 7.52318 9.99136 7.52318C8.56636 7.52318 8.27591 8.98636 8.21864 9.64364V14.5336C8.21865 14.6562 8.17045 14.7738 8.08446 14.861C7.99847 14.9483 7.88159 14.9982 7.75909 15H5.52C5.45882 15 5.39824 14.9879 5.34174 14.9645C5.28523 14.941 5.23391 14.9066 5.19071 14.8633C5.14752 14.82 5.11329 14.7686 5.09 14.712C5.06672 14.6554 5.05482 14.5948 5.055 14.5336V5.415C5.05482 5.35382 5.06672 5.29321 5.09 5.23663C5.11329 5.18006 5.14752 5.12864 5.19071 5.08531C5.23391 5.04199 5.28523 5.00762 5.34174 4.98416C5.39824 4.96071 5.45882 4.94864 5.52 4.94864H7.75909C7.88278 4.94864 8.0014 4.99777 8.08886 5.08523C8.17632 5.17269 8.22546 5.29131 8.22546 5.415V6.20318C8.75455 5.40955 9.53864 4.79727 11.2118 4.79727C14.9182 4.79727 14.8964 8.25818 14.8964 10.1591Z" fill="#090F1D"/>
</svg>
