<svg width="15" height="12" viewBox="0 0 15 12" fill="none" xmlns="http://www.w3.org/2000/svg">
<path d="M14.0362 0.0451234L13.788 0.135123L0.31802 4.98831C0.222564 5.01782 0.1396 5.07818 0.0821321 5.15991C0.024664 5.24165 -0.00405991 5.34014 0.000462876 5.43995C0.00498566 5.53977 0.0424993 5.63526 0.107124 5.71146C0.171748 5.78766 0.259831 5.84027 0.357565 5.86103L3.84438 6.81558L4.49484 8.72467L5.14529 10.6338C5.18266 10.7273 5.2423 10.8104 5.31905 10.8757C5.3958 10.941 5.48733 10.9866 5.58569 11.0085C5.68405 11.0304 5.78627 11.028 5.88347 11.0014C5.98068 10.9748 6.06993 10.9249 6.14347 10.856L7.94484 9.15421L11.4821 11.5529C11.9144 11.8474 12.5307 11.6292 12.6412 11.1438L14.9839 0.792396C15.0985 0.279669 14.5585 -0.141695 14.0362 0.0451234ZM12.3167 2.34285L6.23075 7.3174L5.94438 7.55194C5.88148 7.60182 5.84041 7.67418 5.82984 7.75376L5.76575 8.28285L5.58984 9.76921C5.59128 9.7873 5.58549 9.80521 5.57372 9.81902C5.56196 9.83283 5.54519 9.8414 5.52711 9.84285C5.50903 9.8443 5.49111 9.8385 5.4773 9.82674C5.46349 9.81497 5.45492 9.79821 5.45347 9.78012L4.95848 8.29512L4.44711 6.77467C4.42548 6.70633 4.42836 6.63258 4.45524 6.56613C4.48212 6.49967 4.53132 6.44467 4.59438 6.41058L10.9271 2.78058L12.1189 2.09876C12.2921 1.99785 12.4694 2.2174 12.3167 2.34285Z" fill="#090F1D"/>
</svg>
