<svg width="15" height="13" viewBox="0 0 15 13" fill="none" xmlns="http://www.w3.org/2000/svg">
<path d="M14.964 1.70046C14.608 2.23229 14.1746 2.70799 13.6781 3.11182C13.6137 3.16304 13.5617 3.22816 13.5261 3.30231C13.4904 3.37646 13.472 3.45772 13.4722 3.54V3.59046C13.4665 4.66213 13.2698 5.7242 12.8913 6.72682C12.5014 7.77769 11.9223 8.74825 11.1826 9.59046C10.1932 10.7184 8.91872 11.5596 7.49264 12.0259C6.55295 12.3309 5.57056 12.4837 4.58264 12.4786C3.01807 12.477 1.48169 12.0621 0.129001 11.2759C0.0805645 11.2484 0.0424763 11.2057 0.0205597 11.1545C-0.0013568 11.1033 -0.00589546 11.0463 0.00763728 10.9923C0.0213521 10.9388 0.0525772 10.8915 0.0963274 10.8579C0.140078 10.8243 0.19383 10.8063 0.249001 10.8068H0.622637C1.81186 10.8066 2.97388 10.4509 3.95946 9.78546C3.37195 9.68942 2.82221 9.43352 2.37049 9.04578C1.91877 8.65804 1.58251 8.15344 1.39855 7.58727C1.38952 7.55936 1.38791 7.52958 1.39388 7.50086C1.39984 7.47214 1.41318 7.44546 1.43257 7.42345C1.45197 7.40144 1.47676 7.38486 1.5045 7.37533C1.53225 7.3658 1.56199 7.36365 1.59082 7.36909C1.77063 7.40328 1.95324 7.42063 2.13627 7.42091H2.20446C1.63501 7.15927 1.15358 6.73822 0.818402 6.20871C0.483223 5.6792 0.308656 5.06391 0.315819 4.43727C0.316208 4.40788 0.324194 4.37908 0.339 4.35368C0.353807 4.32828 0.374932 4.30714 0.400322 4.29232C0.425712 4.2775 0.454505 4.2695 0.483902 4.26909C0.513299 4.26868 0.542302 4.27589 0.568092 4.29C0.799136 4.41902 1.04695 4.51539 1.30446 4.57637C0.794527 4.07223 0.466325 3.41312 0.371313 2.70238C0.276301 1.99164 0.419852 1.26947 0.779455 0.649092C0.793251 0.626231 0.812264 0.606962 0.834938 0.592862C0.857612 0.578762 0.883304 0.570232 0.909909 0.56797C0.936514 0.565709 0.963276 0.56978 0.988005 0.579851C1.01273 0.589922 1.03473 0.605706 1.05218 0.625911C1.76637 1.50877 2.65064 2.23915 3.65252 2.7737C4.6544 3.30825 5.75345 3.63608 6.88446 3.73773H6.89673C6.91349 3.73718 6.92996 3.73328 6.94519 3.72625C6.96041 3.71922 6.97407 3.70922 6.98536 3.69682C6.99622 3.68442 7.00438 3.66989 7.00931 3.65415C7.01424 3.63842 7.01584 3.62184 7.014 3.60546C6.97178 3.20944 6.99761 2.80912 7.09037 2.42182C7.17165 2.08275 7.30998 1.75997 7.49946 1.46727C7.89708 0.842761 8.50281 0.379043 9.20946 0.158183C9.54092 0.0542598 9.88617 0.000932602 10.2335 1.57217e-06C11.0213 -0.000775209 11.7822 0.286317 12.3731 0.807274C12.4484 0.874183 12.5451 0.911916 12.6458 0.913638C12.679 0.913089 12.7119 0.90851 12.744 0.900001C13.2995 0.759464 13.8318 0.539468 14.3245 0.246819C14.3541 0.229687 14.3882 0.221886 14.4224 0.224433C14.4566 0.22698 14.4891 0.239757 14.5159 0.261099C14.5427 0.28244 14.5625 0.311357 14.5726 0.344079C14.5827 0.376801 14.5827 0.411812 14.5726 0.444547C14.4073 0.960658 14.1147 1.42682 13.7217 1.8C14.0762 1.71534 14.4222 1.59849 14.7554 1.45091C14.789 1.43594 14.8265 1.43234 14.8623 1.44064C14.8982 1.44894 14.9303 1.46869 14.9539 1.49691C14.9775 1.52512 14.9912 1.56026 14.9931 1.59699C14.9949 1.63372 14.9847 1.67005 14.964 1.70046Z" fill="#090F1D"/>
</svg>
